<?xml version="1.0" standalone="no"?>
<!DOCTYPE svg PUBLIC "-//W3C//DTD SVG 20010904//EN"
 "http://www.w3.org/TR/2001/REC-SVG-20010904/DTD/svg10.dtd">
<svg version="1.0" xmlns="http://www.w3.org/2000/svg"
 width="426.000000pt" height="397.000000pt" viewBox="0 0 426.000000 397.000000"
 preserveAspectRatio="xMidYMid meet">

<g transform="translate(0.000000,397.000000) scale(0.100000,-0.100000)"
fill="#000000" stroke="none">
<path d="M762 3800 c-123 -33 -224 -93 -327 -195 -144 -144 -215 -298 -215
-469 0 -175 102 -376 221 -437 22 -11 39 -22 39 -24 0 -3 -24 -56 -54 -118
-93 -193 -140 -351 -172 -567 -13 -90 -15 -161 -11 -325 6 -275 33 -430 107
-609 105 -258 282 -477 522 -649 375 -268 865 -402 1398 -384 557 20 1093 222
1429 539 308 292 444 641 445 1143 0 337 -59 607 -190 869 -29 60 -54 110 -54
112 0 2 7 4 16 4 28 0 138 121 172 188 172 346 -37 793 -428 914 -110 34 -248
31 -350 -7 -101 -37 -177 -84 -234 -145 -47 -50 -85 -119 -86 -154 0 -11 -5
-16 -12 -13 -117 52 -224 92 -300 112 -402 108 -803 88 -1175 -61 -61 -24
-115 -44 -121 -44 -5 0 -12 17 -16 38 -12 77 -111 184 -222 240 -61 31 -190
62 -253 61 -31 0 -89 -9 -129 -19z m1663 -281 c181 -22 441 -107 644 -209 487
-244 836 -712 933 -1251 30 -165 32 -539 4 -688 -51 -272 -152 -474 -331 -660
-235 -244 -529 -406 -919 -506 -211 -54 -340 -69 -586 -69 -282 1 -429 22
-689 101 -600 181 -1006 602 -1102 1143 -58 323 -22 709 91 996 155 390 407
682 780 902 362 214 750 293 1175 241z"/>
<path d="M1335 2176 c-244 -79 -468 -298 -552 -537 -22 -65 -25 -85 -21 -178
4 -95 7 -112 36 -168 59 -115 128 -169 248 -194 114 -23 241 21 339 118 102
100 264 380 326 563 31 91 36 197 14 256 -55 145 -207 200 -390 140z m70 -395
c71 -33 121 -105 95 -136 -20 -24 -36 -18 -63 24 -52 78 -152 78 -203 1 -28
-43 -44 -49 -64 -25 -38 45 78 155 165 155 17 0 48 -9 70 -19z"/>
<path d="M2786 2185 c-56 -20 -107 -65 -136 -121 -54 -106 -23 -254 107 -504
88 -169 160 -275 236 -347 74 -69 129 -98 212 -114 76 -14 135 -5 211 32 75
36 126 90 167 178 29 61 32 74 31 171 0 87 -5 117 -26 177 -29 81 -96 188
-170 268 -61 67 -190 166 -268 205 -125 63 -277 86 -364 55z m331 -406 c59
-28 95 -73 91 -113 -4 -44 -40 -49 -58 -7 -15 36 -66 71 -104 71 -41 0 -81
-25 -104 -65 -23 -38 -45 -45 -61 -18 -20 36 27 103 94 134 52 24 89 24 142
-2z"/>
<path d="M2119 1641 c-91 -18 -147 -85 -129 -153 13 -45 75 -103 130 -119 50
-15 140 0 180 29 73 55 89 130 39 187 -47 53 -128 74 -220 56z"/>
<path d="M1762 1318 c-33 -33 3 -133 70 -194 164 -148 546 -150 713 -3 68 60
100 175 55 199 -27 15 -36 8 -65 -55 -30 -62 -73 -98 -153 -128 -47 -18 -80
-21 -187 -22 -206 0 -301 41 -359 158 -29 57 -49 70 -74 45z"/>
</g>
</svg>
