<?xml version="1.0" standalone="no"?>
<!DOCTYPE svg PUBLIC "-//W3C//DTD SVG 20010904//EN"
 "http://www.w3.org/TR/2001/REC-SVG-20010904/DTD/svg10.dtd">
<svg version="1.0" xmlns="http://www.w3.org/2000/svg"
 width="54.000000pt" height="52.000000pt" viewBox="0 0 54.000000 52.000000"
 preserveAspectRatio="xMidYMid meet">

<g transform="translate(0.000000,52.000000) scale(0.100000,-0.100000)"
fill="#000000" stroke="none">
<path d="M65 511 c-54 -23 -81 -108 -42 -136 16 -11 16 -15 1 -50 -19 -45 -21
-128 -5 -177 14 -42 74 -102 123 -122 92 -39 221 -28 300 24 80 53 111 144 84
249 -14 53 -14 63 0 90 23 46 -1 102 -53 122 -26 10 -79 -6 -87 -27 -4 -11
-11 -11 -31 -4 -34 13 -136 13 -169 0 -19 -7 -27 -6 -33 4 -9 14 -46 36 -60
35 -4 0 -17 -4 -28 -8z m299 -51 c59 -23 118 -79 142 -136 8 -18 14 -62 14
-96 0 -96 -46 -159 -142 -194 -53 -19 -149 -22 -206 -5 -51 14 -120 73 -139
118 -22 54 -17 132 15 193 61 121 187 168 316 120z"/>
<path d="M144 290 c-50 -20 -82 -98 -52 -128 32 -32 79 -2 108 69 21 50 -7 79
-56 59z m29 -57 c3 -5 -5 -8 -18 -8 -13 0 -21 3 -18 8 2 4 10 7 18 7 8 0 16
-3 18 -7z"/>
<path d="M341 286 c-27 -32 25 -129 71 -134 35 -4 63 34 49 69 -21 55 -95 95
-120 65z m69 -53 c0 -5 -11 -9 -25 -9 -14 -1 -22 2 -19 7 6 11 44 12 44 2z"/>
<path d="M246 211 c-8 -12 21 -34 34 -26 17 11 11 35 -9 35 -11 0 -22 -4 -25
-9z"/>
<path d="M212 170 c2 -8 17 -21 31 -28 22 -11 32 -11 54 0 14 7 29 20 31 28 4
11 1 10 -12 -3 -22 -22 -64 -22 -89 1 -16 13 -19 14 -15 2z"/>
</g>
</svg>
